<svg xmlns="http://www.w3.org/2000/svg" version="1.1" xmlns:xlink="http://www.w3.org/1999/xlink" xmlns:svgjs="http://svgjs.dev/svgjs" width="1440" height="560" preserveAspectRatio="none" viewBox="0 0 1440 560"><g mask="url(&quot;#SvgjsMask1018&quot;)" fill="none"><rect width="1440" height="560" x="0" y="0" fill="rgba(9, 35, 39, 1)"></rect><path d="M -563.0955194845981,513 C -491.1,428.2 -347.1,99.8 -203.09551948459813,89 C -59.1,78.2 12.9,422 156.90448051540187,459 C 300.9,496 372.9,271 516.9044805154019,274 C 660.9,277 732.9,479.4 876.9044805154019,474 C 1020.9,468.6 1124.29,259.6 1236.904480515402,247 C 1349.52,234.4 1399.38,378.2 1440,411" stroke="rgba(9, 72, 70, 1)" stroke-width="2"></path><path d="M -572.6775607302144,532 C -500.68,463.8 -356.68,203 -212.67756073021442,191 C -68.68,179 3.32,457 147.32243926978558,472 C 291.32,487 363.32,292 507.3224392697856,266 C 651.32,240 723.32,354.6 867.3224392697856,342 C 1011.32,329.4 1112.79,191.8 1227.3224392697855,203 C 1341.86,214.2 1397.46,359 1440,398" stroke="rgba(9, 72, 70, 1)" stroke-width="2"></path><path d="M -586.8218305924229,490 C -514.82,445.8 -370.82,269.6 -226.82183059242286,269 C -82.82,268.4 -10.82,531.6 133.17816940757714,487 C 277.18,442.4 349.18,36.6 493.1781694075771,46 C 637.18,55.4 709.18,492.4 853.1781694075771,534 C 997.18,575.6 1095.81,282.6 1213.1781694075771,254 C 1330.54,225.4 1394.64,363.6 1440,391" stroke="rgba(9, 72, 70, 1)" stroke-width="2"></path><path d="M -180.38411989257216,448 C -108.38,402.2 35.62,220.6 179.61588010742784,219 C 323.62,217.4 395.62,456 539.6158801074279,440 C 683.62,424 755.62,126.6 899.6158801074279,139 C 1043.62,151.4 1115.62,487.6 1259.6158801074278,502 C 1403.62,516.4 1583.54,247 1619.6158801074278,211 C 1655.69,175 1475.92,299.8 1440,322" stroke="rgba(9, 72, 70, 1)" stroke-width="2"></path></g><defs><mask id="SvgjsMask1018"><rect width="1440" height="560" fill="#ffffff"></rect></mask></defs></svg>